<svg xmlns="http://www.w3.org/2000/svg" viewBox="0 0 660 200" class="w-full h-auto block" role="img" aria-label="Model calls per close. 01 7, 02 7, 03 6, 04 6."><defs><linearGradient id="g-_R_7clubvb_" x1="0" y1="0" x2="0" y2="1"><stop offset="0%" stop-color="#2a78d6" stop-opacity="0.13"></stop><stop offset="100%" stop-color="#2a78d6" stop-opacity="0"></stop></linearGradient></defs><g><line x1="44" x2="644" y1="16" y2="16" stroke="#e3e8ee" stroke-width="1"></line><text x="36" y="20" text-anchor="end" font-size="10" fill="#64748d" class="nums">10</text></g><g><line x1="44" x2="644" y1="54.5" y2="54.5" stroke="#e3e8ee" stroke-width="1"></line><text x="36" y="58.5" text-anchor="end" font-size="10" fill="#64748d" class="nums">8</text></g><g><line x1="44" x2="644" y1="93" y2="93" stroke="#e3e8ee" stroke-width="1"></line><text x="36" y="97" text-anchor="end" font-size="10" fill="#64748d" class="nums">5</text></g><g><line x1="44" x2="644" y1="131.5" y2="131.5" stroke="#e3e8ee" stroke-width="1"></line><text x="36" y="135.5" text-anchor="end" font-size="10" fill="#64748d" class="nums">3</text></g><g><line x1="44" x2="644" y1="170" y2="170" stroke="#e3e8ee" stroke-width="1"></line><text x="36" y="174" text-anchor="end" font-size="10" fill="#64748d" class="nums">0</text></g><path d="M44.0,62.2 L244.0,62.2 L444.0,77.6 L644.0,77.6 L644.0,170 L44.0,170 Z" fill="url(#g-_R_7clubvb_)"></path><path d="M44.0,62.2 L244.0,62.2 L444.0,77.6 L644.0,77.6" fill="none" stroke="#2a78d6" stroke-width="2" stroke-linecap="round" stroke-linejoin="round"></path><g><text x="44" y="192" text-anchor="middle" font-size="11" fill="#64748d">01</text><circle cx="44" cy="62.2" r="4.5" fill="#2a78d6" stroke="#ffffff" stroke-width="2"></circle><rect x="-31" y="16" width="150" height="154" fill="transparent"></rect></g><g><text x="244" y="192" text-anchor="middle" font-size="11" fill="#64748d">02</text><circle cx="244" cy="62.2" r="4.5" fill="#2a78d6" stroke="#ffffff" stroke-width="2"></circle><rect x="169" y="16" width="150" height="154" fill="transparent"></rect></g><g><text x="444" y="192" text-anchor="middle" font-size="11" fill="#64748d">03</text><circle cx="444" cy="77.60000000000001" r="4.5" fill="#2a78d6" stroke="#ffffff" stroke-width="2"></circle><rect x="369" y="16" width="150" height="154" fill="transparent"></rect></g><g><text x="644" y="192" text-anchor="middle" font-size="11" fill="#64748d">04</text><circle cx="644" cy="77.60000000000001" r="4.5" fill="#2a78d6" stroke="#ffffff" stroke-width="2"></circle><rect x="569" y="16" width="150" height="154" fill="transparent"></rect></g><text x="644" y="65.60000000000001" text-anchor="end" font-size="12" font-weight="600" fill="#0d253d" class="nums">6</text></svg>